<svg xmlns="http://www.w3.org/2000/svg" width="720" height="308" viewBox="0 0 720 308">
<g>
<path d="M 506.00 285.00 C503.65,287.35 498.66,287.49 489.50,285.48 C473.56,281.97 461.18,275.04 448.47,262.50 C431.63,245.88 420.90,226.33 413.36,198.50 C410.86,189.28 410.65,186.98 410.60,169.00 C410.55,150.86 410.73,148.78 413.27,139.22 C420.08,113.55 433.55,87.20 453.06,61.42 C469.44,39.77 487.15,24.89 508.34,14.96 C525.40,6.97 546.52,3.45 560.34,6.29 C577.62,9.85 588.82,19.27 594.16,34.74 C596.14,40.46 596.49,43.41 596.45,54.00 C596.41,64.94 596.05,67.55 593.61,74.92 C592.07,79.54 588.41,87.21 585.47,91.95 C582.54,96.70 580.00,101.17 579.82,101.90 C579.61,102.78 582.15,103.97 587.50,105.48 C603.50,110.01 612.74,114.78 620.49,122.54 C628.11,130.15 630.50,135.64 630.50,145.50 C630.50,156.53 627.57,162.38 617.07,172.26 C607.79,180.98 598.42,185.95 584.13,189.71 C575.81,191.91 572.40,192.25 559.00,192.25 C545.62,192.25 542.19,191.91 533.92,189.73 C523.86,187.07 514.38,182.80 507.23,177.69 C501.98,173.93 494.72,164.71 495.17,162.38 C495.42,161.09 497.29,162.42 502.65,167.73 C518.27,183.16 543.41,189.79 570.29,185.56 C589.87,182.48 601.19,177.56 611.87,167.48 C622.74,157.23 625.94,146.41 621.24,135.83 C616.23,124.55 596.84,113.53 578.43,111.48 L 572.50 110.82 L 568.70 115.84 C563.66,122.49 552.23,133.20 546.74,136.41 C528.27,147.24 509.00,144.21 509.00,130.48 C509.00,115.73 533.22,103.10 561.63,103.02 L 568.76 103.00 L 574.27 94.75 C585.80,77.49 589.61,65.75 588.76,50.17 C588.11,38.19 585.28,31.22 578.11,23.94 C569.76,15.46 564.06,13.52 548.00,13.65 C537.61,13.74 533.98,14.21 526.50,16.41 C496.55,25.25 474.69,43.12 451.80,77.50 C442.99,90.73 430.57,115.18 426.52,127.29 C417.00,155.75 417.19,182.54 427.12,210.69 C437.05,238.84 454.11,260.74 473.63,270.38 C482.06,274.55 486.05,275.66 496.95,276.88 C503.13,277.57 505.75,278.30 506.70,279.60 C508.44,281.98 508.35,282.65 506.00,285.00 ZM 236.51 244.68 C236.29,245.34 235.22,246.35 234.13,246.93 C231.74,248.21 229.36,246.29 228.35,242.28 C227.39,238.42 228.78,214.35 230.85,199.00 C231.86,191.57 232.52,185.31 232.33,185.07 C232.14,184.84 231.42,185.36 230.74,186.24 C228.68,188.88 222.68,191.99 219.64,192.00 C215.48,192.00 209.32,188.18 207.88,184.71 L 206.64 181.72 L 203.69 185.40 C200.93,188.84 196.35,192.00 194.13,192.00 C192.45,192.00 187.00,186.89 185.42,183.85 C183.50,180.13 184.85,171.77 189.11,161.09 C192.64,152.25 192.10,150.94 185.74,152.90 C177.92,155.32 172.76,155.39 169.86,153.10 C166.34,150.34 165.80,146.77 167.70,139.00 C170.35,128.18 175.39,121.97 181.47,122.03 C188.42,122.10 189.94,127.55 185.12,135.15 C182.31,139.58 177.30,144.00 175.10,144.00 C173.86,144.00 173.71,145.08 174.61,147.42 C175.38,149.43 179.65,149.46 184.35,147.50 C189.81,145.22 194.66,145.57 197.55,148.45 C198.90,149.80 200.00,151.39 200.00,151.97 C200.00,152.55 198.40,156.96 196.45,161.76 C191.99,172.74 191.09,178.96 193.44,182.55 C195.07,185.04 195.25,185.08 197.04,183.47 C198.07,182.53 200.55,179.39 202.55,176.49 C205.60,172.06 206.48,169.51 208.03,160.60 C209.88,149.94 210.38,146.97 211.91,146.28 C212.50,146.02 213.25,146.09 214.28,146.19 L 214.34 146.19 C217.25,146.48 217.49,146.78 217.42,150.00 C217.38,151.93 216.55,157.10 215.57,161.50 C213.45,171.13 213.75,182.18 216.20,184.63 C219.12,187.55 222.67,185.60 226.98,178.72 C229.13,175.30 231.91,171.18 233.16,169.57 C235.10,167.09 235.50,165.17 235.84,156.77 L 236.24 146.89 L 239.37 147.20 C242.46,147.50 242.50,147.58 242.80,153.50 C242.97,156.80 243.46,159.86 243.90,160.29 C244.33,160.73 246.40,158.99 248.50,156.43 C253.60,150.21 257.44,148.01 263.18,148.00 C268.66,148.00 272.64,149.33 275.67,152.16 L 277.83 154.19 L 283.97 150.60 C287.35,148.62 290.51,147.00 290.99,147.00 C292.54,147.00 292.94,145.51 294.55,133.86 C297.64,111.52 301.63,99.40 306.67,97.10 C309.86,95.65 314.30,95.70 315.80,97.20 C318.87,100.27 315.93,119.51 310.38,132.79 C308.93,136.25 308.01,139.34 308.34,139.67 C308.66,139.99 310.84,139.78 313.18,139.18 C317.84,138.00 320.00,138.89 320.00,142.00 C320.00,144.50 318.59,145.31 308.75,148.45 L 300.00 151.24 L 300.01 158.37 C300.02,166.58 301.68,178.06 303.06,179.45 C304.47,180.87 311.14,173.96 319.19,162.75 C325.29,154.26 326.56,153.00 329.09,153.00 C330.69,153.00 332.00,153.40 332.00,153.89 C332.00,157.52 311.58,182.97 306.79,185.31 C303.33,187.01 302.84,187.02 299.68,185.52 C294.91,183.26 293.81,180.15 293.11,167.00 C292.78,160.68 292.16,155.60 291.74,155.73 C291.32,155.85 288.83,156.88 286.20,158.01 L 281.41 160.07 L 281.78 169.28 C282.14,178.25 282.06,178.65 278.82,183.96 C274.46,191.12 268.57,195.53 261.35,197.03 C254.60,198.43 249.75,197.35 245.60,193.51 C244.11,192.13 242.52,191.00 242.07,191.00 C240.20,191.00 238.88,200.70 237.92,221.50 C237.36,233.60 236.73,244.03 236.51,244.68 ZM 87.33 190.52 C66.67,194.90 50.00,188.59 50.00,176.40 C50.00,171.39 55.92,163.96 62.00,161.33 C66.38,159.44 80.08,157.14 83.75,157.68 C93.31,159.08 99.16,160.37 103.89,162.10 L 109.29 164.08 L 108.70 159.09 C106.69,142.12 87.69,127.98 56.34,120.12 C33.32,114.35 26.18,111.12 18.78,103.13 C12.51,96.36 10.79,91.69 10.83,81.53 C10.92,60.67 21.83,43.31 43.69,29.25 C54.56,22.27 64.84,18.74 79.58,16.95 C98.37,14.66 109.00,19.51 111.93,31.72 C113.85,39.69 110.19,50.69 100.94,64.77 C91.90,78.53 68.93,94.48 66.67,88.57 C66.03,86.92 66.47,86.54 74.55,81.71 C88.70,73.26 102.94,52.90 104.60,38.74 C105.88,27.89 99.09,21.06 87.00,21.03 C64.20,20.97 38.94,34.18 27.10,52.34 C20.98,61.74 18.84,68.77 18.68,80.00 C18.56,87.96 18.90,90.24 20.76,94.04 C23.47,99.59 27.88,103.87 34.50,107.36 C38.87,109.67 57.77,115.64 68.00,117.95 C82.14,121.15 98.06,129.99 107.11,139.68 C112.79,145.76 113.91,147.80 116.02,155.86 L 117.68 162.21 L 119.34 156.27 C121.51,148.54 125.96,141.93 131.97,137.52 C140.45,131.30 148.58,129.54 155.53,132.45 C158.47,133.68 159.00,134.39 159.00,137.11 C159.00,140.80 154.85,148.48 152.03,149.98 C149.52,151.33 146.67,151.27 145.25,149.85 C144.38,148.98 144.95,147.71 147.55,144.67 C153.52,137.70 151.36,134.50 143.09,138.06 C140.46,139.19 136.25,142.22 133.73,144.81 C124.19,154.58 122.21,172.81 129.78,181.35 C132.74,184.68 139.76,187.27 143.81,186.51 C149.57,185.43 154.97,182.16 157.17,178.44 C159.53,174.44 163.42,172.99 165.68,175.25 C167.62,177.19 166.50,179.41 161.18,184.22 C155.67,189.20 146.99,192.29 139.89,191.79 C133.05,191.31 125.18,186.67 121.83,181.16 C117.83,174.57 115.61,174.40 109.15,180.14 C103.43,185.23 96.32,188.61 87.33,190.52 ZM 662.50 187.52 C657.31,190.70 650.97,190.78 644.96,187.75 C638.85,184.67 635.62,178.23 635.59,169.06 C635.56,161.43 637.77,156.37 644.18,149.42 C653.80,138.98 669.16,140.23 670.42,151.55 C671.42,160.44 658.02,173.09 647.45,173.25 C643.85,173.30 643.00,173.66 643.00,175.12 C643.00,177.55 648.67,183.88 651.47,184.58 C654.34,185.30 661.86,181.79 665.43,178.07 C667.76,175.64 668.18,174.30 668.33,168.86 C668.71,154.66 680.83,142.00 694.05,142.00 C697.67,142.00 701.61,145.29 702.99,149.48 C703.95,152.37 703.82,153.62 702.19,157.30 C698.36,165.96 688.55,173.13 680.36,173.25 C675.33,173.33 674.90,174.48 678.01,179.51 C682.28,186.42 689.58,186.13 697.37,178.75 C703.19,173.24 708.61,173.64 706.39,179.42 C705.78,181.02 699.33,185.74 694.00,188.50 C688.29,191.46 678.51,189.70 673.27,184.79 C670.80,182.47 670.71,182.49 662.50,187.52 ZM 520.30 284.19 C516.39,291.69 505.44,304.31 506.57,300.00 C506.93,298.62 508.03,296.15 509.02,294.50 C518.50,278.59 521.96,253.26 517.08,235.52 C508.95,206.00 481.80,173.00 456.00,161.26 C443.75,155.69 442.64,155.24 439.35,154.55 C437.62,154.18 435.39,152.98 434.39,151.87 C432.73,150.04 432.70,149.62 434.07,147.18 C435.32,144.94 436.36,144.45 440.39,144.19 C444.27,143.94 446.72,144.59 452.86,147.51 C471.26,156.24 492.84,174.00 505.51,190.83 C513.66,201.66 521.09,215.94 524.61,227.57 C526.99,235.42 527.32,238.26 527.40,251.00 C527.49,267.29 526.38,272.49 520.30,284.19 ZM 389.61 156.05 C384.31,158.40 374.99,159.44 371.00,158.12 C361.96,155.15 353.47,147.59 349.95,139.39 C347.39,133.41 347.29,121.94 349.75,117.00 C351.25,114.00 352.00,113.50 355.00,113.50 C357.84,113.50 358.56,113.91 358.81,115.68 C358.98,116.88 358.42,119.22 357.56,120.88 C355.62,124.63 355.55,131.98 357.40,136.42 C359.33,141.04 365.83,148.03 369.72,149.65 C374.06,151.47 381.46,151.35 385.58,149.40 C389.86,147.37 395.65,140.99 398.08,135.64 C400.32,130.70 400.53,123.47 398.53,120.00 C397.73,118.62 396.65,116.54 396.11,115.37 C394.66,112.19 387.01,107.44 381.02,106.00 C373.34,104.16 361.77,105.36 353.06,108.91 L 346.00 111.78 L 346.00 108.53 C346.00,105.52 346.45,105.07 351.92,102.62 C368.05,95.38 387.48,96.89 398.55,106.26 C406.85,113.29 410.15,127.32 406.05,138.19 C403.35,145.33 396.15,153.16 389.61,156.05 ZM 69.23 186.50 C75.45,188.03 81.14,187.58 89.92,184.86 C97.68,182.45 104.44,177.98 106.57,173.86 C107.44,172.18 108.00,170.69 107.82,170.53 C106.02,168.95 97.35,165.50 91.26,163.94 C81.42,161.42 74.42,161.46 68.33,164.07 C59.62,167.81 56.11,172.76 58.03,178.60 C59.42,182.79 62.24,184.78 69.23,186.50 ZM 253.21 190.43 C256.20,192.53 259.28,192.41 263.98,190.01 C271.21,186.32 275.61,177.74 274.77,169.00 C274.17,162.75 271.08,156.96 267.12,154.64 C264.40,153.05 263.51,152.96 260.95,154.02 C256.69,155.79 253.26,160.27 248.85,169.85 C244.92,178.38 244.24,181.00 245.98,181.00 C246.52,181.00 247.86,182.77 248.97,184.93 C250.07,187.10 251.98,189.57 253.21,190.43 ZM 517.75 134.27 C519.20,135.88 520.52,136.14 525.63,135.81 C535.11,135.21 545.51,129.62 555.23,119.89 C559.50,115.62 563.00,111.64 563.00,111.06 C563.00,110.42 560.35,110.01 556.25,110.01 C540.72,110.05 521.69,117.90 517.50,126.00 C515.54,129.78 515.61,131.91 517.75,134.27 ZM 467.97 239.64 C458.57,244.85 454.87,245.62 452.40,242.89 C449.73,239.94 451.28,238.24 461.58,232.75 C466.49,230.14 476.91,223.65 484.74,218.33 C492.58,213.01 499.25,208.92 499.58,209.24 C500.75,210.42 497.92,213.80 486.79,224.54 C479.03,232.04 473.07,236.81 467.97,239.64 ZM 451.28 218.87 C444.36,222.35 440.90,222.78 438.93,220.42 C437.03,218.12 438.69,216.02 445.08,212.63 C459.08,205.22 471.14,197.42 478.78,190.83 C482.16,187.92 484.00,187.27 484.00,188.97 C484.00,190.74 469.97,205.85 463.70,210.83 C460.29,213.53 454.70,217.15 451.28,218.87 ZM 484.22 259.80 C476.82,263.75 473.28,263.97 472.42,260.56 C471.58,257.17 472.25,256.43 479.31,252.93 C482.71,251.24 490.58,246.27 496.78,241.88 C508.60,233.54 511.00,232.16 511.00,233.74 C511.00,237.67 493.14,255.05 484.22,259.80 ZM 440.23 194.81 C434.08,198.54 431.50,198.81 429.94,195.88 C428.48,193.16 429.43,192.22 438.50,187.48 C442.35,185.46 449.43,181.16 454.24,177.91 C463.51,171.64 464.00,171.40 464.00,173.06 C464.00,176.45 451.19,188.18 440.23,194.81 ZM 676.00 165.96 C676.00,168.72 679.73,168.66 684.69,165.83 C690.17,162.70 691.97,160.97 694.11,156.79 C697.48,150.18 696.10,147.00 690.47,148.42 C684.88,149.82 676.00,160.59 676.00,165.96 ZM 643.00 165.95 C643.00,169.73 650.84,167.62 657.36,162.08 C662.64,157.58 664.40,148.00 659.93,148.00 C653.65,148.00 643.00,159.29 643.00,165.95 ZM 222.07 142.96 C218.86,144.68 216.97,144.17 213.40,140.60 C209.11,136.31 208.69,131.55 212.45,129.84 C215.44,128.48 220.31,130.17 222.54,133.36 C224.68,136.42 224.42,141.70 222.07,142.96 ZM 304.00 124.64 C304.00,126.29 304.36,127.02 304.89,126.45 C305.95,125.31 309.00,113.26 309.00,110.19 C309.00,107.07 307.15,107.48 306.46,110.75 C306.14,112.26 305.46,115.39 304.94,117.69 C304.42,120.00 304.00,123.13 304.00,124.64 Z" />
<path d="M 304.00 124.64 C304.00,123.13 304.42,120.00 304.94,117.69 C305.46,115.39 306.14,112.26 306.46,110.75 C307.15,107.48 309.00,107.07 309.00,110.19 C309.00,112.09 307.84,117.41 306.70,121.47 C307.19,119.13 307.43,116.56 307.18,114.90 L 306.67 111.50 L 305.35 116.50 C304.63,119.25 304.03,122.81 304.02,124.42 C304.01,125.44 304.14,126.20 304.34,126.53 C304.12,126.27 304.00,125.62 304.00,124.64 ZM 304.79 126.54 C304.90,126.43 305.00,126.28 305.11,126.11 C305.03,126.26 304.95,126.38 304.89,126.45 C304.85,126.49 304.82,126.52 304.79,126.54 Z" />
<path d="M 474.20 262.75 C473.30,262.57 472.50,262.18 471.73,261.60 C469.67,260.03 470.03,258.52 473.50,256.23 C471.95,257.49 471.93,258.57 472.42,260.56 C472.71,261.69 473.28,262.42 474.20,262.75 ZM 496.78 241.88 C491.27,245.78 484.44,250.14 480.60,252.25 C484.95,249.77 491.60,245.51 496.78,241.86 C504.01,236.77 507.71,234.28 509.50,233.47 C507.71,234.28 504.01,236.78 496.78,241.88 Z" />
<path d="M 467.97 239.64 C473.07,236.81 479.03,232.04 486.79,224.54 C497.92,213.80 500.75,210.42 499.58,209.24 C499.25,208.92 492.58,213.01 484.74,218.33 C476.91,223.65 466.49,230.14 461.58,232.75 C453.13,237.25 450.57,239.21 451.40,241.40 C448.86,238.26 446.66,235.22 445.10,232.57 C442.29,227.82 440.00,223.37 440.00,222.67 C440.00,222.16 439.79,221.50 439.48,220.97 C441.53,222.68 444.97,222.05 451.28,218.87 C454.70,217.15 460.29,213.53 463.70,210.83 C469.97,205.85 484.00,190.74 484.00,188.97 C484.00,187.27 482.16,187.92 478.78,190.83 C471.14,197.42 459.08,205.22 445.08,212.63 C440.08,215.28 437.97,217.14 438.21,218.93 C437.39,217.34 436.19,214.74 435.04,212.00 C425.02,188.24 423.08,159.93 430.88,151.31 C431.78,150.32 433.31,148.26 434.28,146.75 C435.80,144.38 436.71,144.00 440.80,144.00 C441.54,144.00 442.33,144.07 443.17,144.20 C442.28,144.12 441.38,144.13 440.39,144.19 C436.36,144.45 435.32,144.94 434.07,147.18 C432.70,149.62 432.73,150.04 434.39,151.87 C435.39,152.98 437.62,154.18 439.35,154.55 C442.64,155.24 443.75,155.69 456.00,161.26 C481.80,173.00 508.95,206.00 517.08,235.52 C520.19,246.82 519.92,261.20 516.85,274.27 C516.24,273.44 513.55,273.09 506.25,272.75 C494.19,272.18 484.89,269.52 475.17,263.83 C474.37,263.36 473.51,262.81 472.62,262.17 C473.12,262.44 473.64,262.63 474.20,262.75 C476.04,263.42 479.27,262.44 484.22,259.80 C493.14,255.05 511.00,237.67 511.00,233.74 C511.00,233.13 510.64,232.96 509.50,233.47 C507.71,234.28 504.01,236.77 496.78,241.86 C491.60,245.51 484.95,249.77 480.60,252.25 C480.12,252.51 479.69,252.74 479.31,252.93 C476.40,254.37 474.58,255.34 473.50,256.23 C470.41,258.27 469.78,259.69 471.15,261.09 C465.65,256.90 458.88,250.24 453.31,243.69 C455.79,245.39 459.64,244.25 467.97,239.64 ZM 388.24 147.73 C388.75,147.11 387.46,147.09 382.92,147.14 C372.51,147.27 365.34,143.07 361.35,134.51 C358.49,128.37 358.43,125.53 361.00,119.00 C363.60,112.39 363.52,110.39 360.57,108.45 C359.02,107.44 358.27,107.14 356.14,107.79 C364.36,105.13 374.21,104.37 381.02,106.00 C387.01,107.44 394.66,112.19 396.11,115.37 C396.65,116.54 397.73,118.62 398.53,120.00 C400.53,123.47 400.32,130.70 398.08,135.64 C396.12,139.94 392.00,144.90 388.24,147.73 ZM 440.23 194.81 C451.19,188.18 464.00,176.45 464.00,173.06 C464.00,171.40 463.51,171.64 454.24,177.91 C449.43,181.16 442.35,185.46 438.50,187.48 C429.43,192.22 428.48,193.16 429.94,195.88 C431.50,198.81 434.08,198.54 440.23,194.81 ZM 472.87 159.60 C466.16,154.74 459.31,150.57 452.86,147.51 C451.70,146.96 450.66,146.48 449.73,146.09 C456.39,148.68 464.58,153.52 472.87,159.60 ZM 514.79 281.61 C513.38,285.85 511.67,289.83 509.66,293.39 C511.09,290.67 513.20,285.75 514.79,281.61 ZM 356.06 128.47 C356.09,131.63 356.76,134.94 358.05,137.60 C358.35,138.22 358.70,138.84 359.08,139.46 C358.38,138.40 357.79,137.36 357.40,136.42 C356.48,134.22 356.04,131.30 356.06,128.47 ZM 364.04 145.41 C366.24,147.48 368.63,149.16 370.73,150.03 C370.38,149.91 370.04,149.79 369.72,149.65 C368.11,148.98 366.04,147.38 364.04,145.41 ZM 376.53 150.93 C379.17,150.96 381.90,150.62 384.06,149.99 C381.88,150.69 379.17,151.01 376.53,150.93 ZM 354.89 108.21 C354.11,108.50 353.19,108.86 352.07,109.32 L 350.67 109.88 L 353.06 108.91 C353.65,108.67 354.27,108.43 354.89,108.21 Z" fill="rgb(218,106,5)"/>
<path d="M 0.00 154.00 L 0.00 0.00 L 360.00 0.00 L 720.00 0.00 L 720.00 154.00 L 720.00 308.00 L 360.00 308.00 L 0.00 308.00 L 0.00 154.00 ZM 520.30 284.19 C526.38,272.49 527.49,267.29 527.40,251.00 C527.32,238.26 526.99,235.42 524.61,227.57 C521.09,215.94 513.66,201.66 505.51,190.83 C488.72,168.53 454.83,144.00 440.80,144.00 C436.71,144.00 435.80,144.38 434.28,146.75 C433.31,148.26 431.78,150.32 430.88,151.31 C423.08,159.93 425.02,188.24 435.04,212.00 C436.78,216.12 438.61,219.93 439.10,220.45 C439.60,220.97 440.00,221.97 440.00,222.67 C440.00,223.37 442.29,227.82 445.10,232.57 C451.14,242.80 466.49,258.76 475.17,263.83 C484.89,269.52 494.19,272.18 506.25,272.75 C514.76,273.15 517.00,273.56 517.00,274.71 C517.00,276.64 511.36,290.66 509.05,294.49 C508.05,296.14 506.93,298.62 506.57,300.00 C505.44,304.31 516.39,291.69 520.30,284.19 ZM 506.00 285.00 C508.35,282.65 508.44,281.98 506.70,279.60 C505.75,278.30 503.13,277.57 496.95,276.88 C486.05,275.66 482.06,274.55 473.63,270.38 C454.11,260.74 437.05,238.84 427.12,210.69 C417.19,182.54 417.00,155.75 426.52,127.29 C430.57,115.18 442.99,90.73 451.80,77.50 C474.69,43.12 496.55,25.25 526.50,16.41 C533.98,14.21 537.61,13.74 548.00,13.65 C564.06,13.52 569.76,15.46 578.11,23.94 C585.28,31.22 588.11,38.19 588.76,50.17 C589.61,65.75 585.80,77.49 574.27,94.75 L 568.76 103.00 L 561.63 103.02 C533.22,103.10 509.00,115.73 509.00,130.48 C509.00,144.21 528.27,147.24 546.74,136.41 C552.23,133.20 563.66,122.49 568.70,115.84 L 572.50 110.82 L 578.43 111.48 C596.84,113.53 616.23,124.55 621.24,135.83 C625.94,146.41 622.74,157.23 611.87,167.48 C601.19,177.56 589.87,182.48 570.29,185.56 C543.41,189.79 518.27,183.16 502.65,167.73 C497.29,162.42 495.42,161.09 495.17,162.38 C494.72,164.71 501.98,173.93 507.23,177.69 C514.38,182.80 523.86,187.07 533.92,189.73 C542.19,191.91 545.62,192.25 559.00,192.25 C572.40,192.25 575.81,191.91 584.13,189.71 C598.42,185.95 607.79,180.98 617.07,172.26 C627.57,162.38 630.50,156.53 630.50,145.50 C630.50,135.64 628.11,130.15 620.49,122.54 C612.74,114.78 603.50,110.01 587.50,105.48 C582.15,103.97 579.61,102.78 579.82,101.90 C580.00,101.17 582.54,96.70 585.47,91.95 C588.41,87.21 592.07,79.54 593.61,74.92 C596.05,67.55 596.41,64.94 596.45,54.00 C596.49,43.41 596.14,40.46 594.16,34.74 C588.82,19.27 577.62,9.85 560.34,6.29 C546.52,3.45 525.40,6.97 508.34,14.96 C487.15,24.89 469.44,39.77 453.06,61.42 C433.55,87.20 420.08,113.55 413.27,139.22 C410.73,148.78 410.55,150.86 410.60,169.00 C410.65,186.98 410.86,189.28 413.36,198.50 C420.90,226.33 431.63,245.88 448.47,262.50 C461.18,275.04 473.56,281.97 489.50,285.48 C498.66,287.49 503.65,287.35 506.00,285.00 ZM 236.51 244.68 C236.73,244.03 237.36,233.60 237.92,221.50 C238.88,200.70 240.20,191.00 242.07,191.00 C242.52,191.00 244.11,192.13 245.60,193.51 C249.75,197.35 254.60,198.43 261.35,197.03 C268.57,195.53 274.46,191.12 278.82,183.96 C282.06,178.65 282.14,178.25 281.78,169.28 L 281.41 160.07 L 286.20 158.01 C288.83,156.88 291.32,155.85 291.74,155.73 C292.16,155.60 292.78,160.68 293.11,167.00 C293.81,180.15 294.91,183.26 299.68,185.52 C302.84,187.02 303.33,187.01 306.79,185.31 C311.58,182.97 332.00,157.52 332.00,153.89 C332.00,153.40 330.69,153.00 329.09,153.00 C326.56,153.00 325.29,154.26 319.19,162.75 C311.14,173.96 304.47,180.87 303.06,179.45 C301.68,178.06 300.02,166.58 300.01,158.37 L 300.00 151.24 L 308.75 148.45 C318.59,145.31 320.00,144.50 320.00,142.00 C320.00,138.89 317.84,138.00 313.18,139.18 C310.84,139.78 308.66,139.99 308.34,139.67 C308.01,139.34 308.93,136.25 310.38,132.79 C315.93,119.51 318.87,100.27 315.80,97.20 C314.30,95.70 309.86,95.65 306.67,97.10 C301.63,99.40 297.64,111.52 294.55,133.86 C292.94,145.51 292.54,147.00 290.99,147.00 C290.51,147.00 287.35,148.62 283.97,150.60 L 277.83 154.19 L 275.67 152.16 C272.64,149.33 268.66,148.00 263.18,148.00 C257.44,148.01 253.60,150.21 248.50,156.43 C246.40,158.99 244.33,160.73 243.90,160.29 C243.46,159.86 242.97,156.80 242.80,153.50 C242.50,147.58 242.46,147.50 239.37,147.20 L 236.24 146.89 L 235.84 156.77 C235.50,165.17 235.10,167.09 233.16,169.57 C231.91,171.18 229.13,175.30 226.98,178.72 C222.67,185.60 219.12,187.55 216.20,184.63 C213.75,182.18 213.45,171.13 215.57,161.50 C216.55,157.10 217.38,151.93 217.42,150.00 C217.49,146.78 217.25,146.48 214.34,146.19 C210.57,145.83 210.61,145.75 208.03,160.60 C206.48,169.51 205.60,172.06 202.55,176.49 C200.55,179.39 198.07,182.53 197.04,183.47 C195.25,185.08 195.07,185.04 193.44,182.55 C191.09,178.96 191.99,172.74 196.45,161.76 C198.40,156.96 200.00,152.55 200.00,151.97 C200.00,151.39 198.90,149.80 197.55,148.45 C194.66,145.57 189.81,145.22 184.35,147.50 C179.65,149.46 175.38,149.43 174.61,147.42 C173.71,145.08 173.86,144.00 175.10,144.00 C177.30,144.00 182.31,139.58 185.12,135.15 C189.94,127.55 188.42,122.10 181.47,122.03 C175.39,121.97 170.35,128.18 167.70,139.00 C165.80,146.77 166.34,150.34 169.86,153.10 C172.76,155.39 177.92,155.32 185.74,152.90 C192.10,150.94 192.64,152.25 189.11,161.09 C184.85,171.77 183.50,180.13 185.42,183.85 C187.00,186.89 192.45,192.00 194.13,192.00 C196.35,192.00 200.93,188.84 203.69,185.40 L 206.64 181.72 L 207.88 184.71 C209.32,188.18 215.48,192.00 219.64,192.00 C222.68,191.99 228.68,188.88 230.74,186.24 C231.42,185.36 232.14,184.84 232.33,185.07 C232.52,185.31 231.86,191.57 230.85,199.00 C228.78,214.35 227.39,238.42 228.35,242.28 C229.36,246.29 231.74,248.21 234.13,246.93 C235.22,246.35 236.29,245.34 236.51,244.68 ZM 87.33 190.52 C96.32,188.61 103.43,185.23 109.15,180.14 C115.61,174.40 117.83,174.57 121.83,181.16 C125.18,186.67 133.05,191.31 139.89,191.79 C146.99,192.29 155.67,189.20 161.18,184.22 C166.50,179.41 167.62,177.19 165.68,175.25 C163.42,172.99 159.53,174.44 157.17,178.44 C154.97,182.16 149.57,185.43 143.81,186.51 C139.76,187.27 132.74,184.68 129.78,181.35 C122.21,172.81 124.19,154.58 133.73,144.81 C136.25,142.22 140.46,139.19 143.09,138.06 C151.36,134.50 153.52,137.70 147.55,144.67 C144.95,147.71 144.38,148.98 145.25,149.85 C146.67,151.27 149.52,151.33 152.03,149.98 C154.85,148.48 159.00,140.80 159.00,137.11 C159.00,134.39 158.47,133.68 155.53,132.45 C148.58,129.54 140.45,131.30 131.97,137.52 C125.96,141.93 121.51,148.54 119.34,156.27 L 117.68 162.21 L 116.02 155.86 C113.91,147.80 112.79,145.76 107.11,139.68 C98.06,129.99 82.14,121.15 68.00,117.95 C57.77,115.64 38.87,109.67 34.50,107.36 C27.88,103.87 23.47,99.59 20.76,94.04 C18.90,90.24 18.56,87.96 18.68,80.00 C18.84,68.77 20.98,61.74 27.10,52.34 C38.94,34.18 64.20,20.97 87.00,21.03 C99.09,21.06 105.88,27.89 104.60,38.74 C102.94,52.90 88.70,73.26 74.55,81.71 C66.47,86.54 66.03,86.92 66.67,88.57 C68.93,94.48 91.90,78.53 100.94,64.77 C110.19,50.69 113.85,39.69 111.93,31.72 C109.00,19.51 98.37,14.66 79.58,16.95 C64.84,18.74 54.56,22.27 43.69,29.25 C21.83,43.31 10.92,60.67 10.83,81.53 C10.79,91.69 12.51,96.36 18.78,103.13 C26.18,111.12 33.32,114.35 56.34,120.12 C87.69,127.98 106.69,142.12 108.70,159.09 L 109.29 164.08 L 103.89 162.10 C99.16,160.37 93.31,159.08 83.75,157.68 C80.08,157.14 66.38,159.44 62.00,161.33 C55.92,163.96 50.00,171.39 50.00,176.40 C50.00,188.59 66.67,194.90 87.33,190.52 ZM 662.50 187.52 C670.71,182.49 670.80,182.47 673.27,184.79 C678.51,189.70 688.29,191.46 694.00,188.50 C699.33,185.74 705.78,181.02 706.39,179.42 C708.61,173.64 703.19,173.24 697.37,178.75 C689.58,186.13 682.28,186.42 678.01,179.51 C674.90,174.48 675.33,173.33 680.36,173.25 C688.55,173.13 698.36,165.96 702.19,157.30 C703.82,153.62 703.95,152.37 702.99,149.48 C701.61,145.29 697.67,142.00 694.05,142.00 C680.83,142.00 668.71,154.66 668.33,168.86 C668.18,174.30 667.76,175.64 665.43,178.07 C661.86,181.79 654.34,185.30 651.47,184.58 C648.67,183.88 643.00,177.55 643.00,175.12 C643.00,173.66 643.85,173.30 647.45,173.25 C658.02,173.09 671.42,160.44 670.42,151.55 C669.16,140.23 653.80,138.98 644.18,149.42 C637.77,156.37 635.56,161.43 635.59,169.06 C635.62,178.23 638.85,184.67 644.96,187.75 C650.97,190.78 657.31,190.70 662.50,187.52 ZM 389.61 156.05 C396.15,153.16 403.35,145.33 406.05,138.19 C410.15,127.32 406.85,113.29 398.55,106.26 C387.48,96.89 368.05,95.38 351.92,102.62 C346.45,105.07 346.00,105.52 346.00,108.52 L 346.00 111.77 L 352.07 109.32 C357.74,107.03 358.30,106.97 360.57,108.45 C363.52,110.39 363.60,112.39 361.00,119.00 C358.43,125.53 358.49,128.37 361.35,134.51 C365.34,143.07 372.51,147.27 382.92,147.14 C389.09,147.07 389.26,147.13 387.06,148.67 C384.29,150.61 377.45,151.49 372.47,150.56 C367.91,149.70 360.83,143.35 358.05,137.60 C355.60,132.53 355.38,125.10 357.56,120.88 C358.42,119.22 358.98,116.88 358.81,115.68 C358.56,113.91 357.84,113.50 355.00,113.50 C352.00,113.50 351.25,114.00 349.75,117.00 C347.29,121.94 347.39,133.41 349.95,139.39 C353.47,147.59 361.96,155.15 371.00,158.12 C374.99,159.44 384.31,158.40 389.61,156.05 ZM 222.07 142.96 C224.42,141.70 224.68,136.42 222.54,133.36 C220.31,130.17 215.44,128.48 212.45,129.84 C208.69,131.55 209.11,136.31 213.40,140.60 C216.97,144.17 218.86,144.68 222.07,142.96 ZM 517.75 134.27 C515.61,131.91 515.54,129.78 517.50,126.00 C521.69,117.90 540.72,110.05 556.25,110.01 C560.35,110.01 563.00,110.42 563.00,111.06 C563.00,111.64 559.50,115.62 555.23,119.89 C545.51,129.62 535.11,135.21 525.63,135.81 C520.52,136.14 519.20,135.88 517.75,134.27 ZM 253.21 190.43 C251.98,189.57 250.07,187.10 248.97,184.93 C247.86,182.77 246.52,181.00 245.98,181.00 C244.24,181.00 244.92,178.38 248.85,169.85 C253.26,160.27 256.69,155.79 260.95,154.02 C263.51,152.96 264.40,153.05 267.12,154.64 C271.08,156.96 274.17,162.75 274.77,169.00 C275.61,177.74 271.21,186.32 263.98,190.01 C259.28,192.41 256.20,192.53 253.21,190.43 ZM 304.02 124.42 C304.03,122.81 304.63,119.25 305.35,116.50 L 306.67 111.50 L 307.18 114.90 C307.68,118.19 306.24,125.10 304.73,126.60 C304.33,127.00 304.01,126.02 304.02,124.42 ZM 69.23 186.50 C62.24,184.78 59.42,182.79 58.03,178.60 C56.11,172.76 59.62,167.81 68.33,164.07 C74.42,161.46 81.42,161.42 91.26,163.94 C97.35,165.50 106.02,168.95 107.82,170.53 C108.00,170.69 107.44,172.18 106.57,173.86 C104.44,177.98 97.68,182.45 89.92,184.86 C81.14,187.58 75.45,188.03 69.23,186.50 ZM 643.00 165.95 C643.00,159.29 653.65,148.00 659.93,148.00 C664.40,148.00 662.64,157.58 657.36,162.08 C650.84,167.62 643.00,169.73 643.00,165.95 ZM 676.00 165.96 C676.00,160.59 684.88,149.82 690.47,148.42 C696.10,147.00 697.48,150.18 694.11,156.79 C691.97,160.97 690.17,162.70 684.69,165.83 C679.73,168.66 676.00,168.72 676.00,165.96 Z" fill="rgb(254,254,254)" fill-opacity="0"/>
</g>
</svg>
