<?xml version="1.0" encoding="utf-8"?>
<svg xmlns="http://www.w3.org/2000/svg" viewBox="0 0 180 180">
  <g transform="matrix(0.582935, 0, 0, 0.582935, -196.025665, 1.136195)" style="">
    <path d="M 506 285 C 503.65 287.35 498.66 287.49 489.5 285.48 C 473.56 281.97 461.18 275.04 448.47 262.5 C 431.63 245.88 420.9 226.33 413.36 198.5 C 410.86 189.28 410.65 186.98 410.6 169 C 410.55 150.86 410.73 148.78 413.27 139.22 C 420.08 113.55 433.55 87.2 453.06 61.42 C 469.44 39.77 487.15 24.89 508.34 14.96 C 525.4 6.97 546.52 3.45 560.34 6.29 C 577.62 9.85 588.82 19.27 594.16 34.74 C 596.14 40.46 596.49 43.41 596.45 54 C 596.41 64.94 596.05 67.55 593.61 74.92 C 592.07 79.54 588.41 87.21 585.47 91.95 C 582.54 96.7 580 101.17 579.82 101.9 C 579.61 102.78 582.15 103.97 587.5 105.48 C 603.5 110.01 612.74 114.78 620.49 122.54 C 628.11 130.15 630.5 135.64 630.5 145.5 C 630.5 156.53 627.57 162.38 617.07 172.26 C 607.79 180.98 598.42 185.95 584.13 189.71 C 575.81 191.91 572.4 192.25 559 192.25 C 545.62 192.25 542.19 191.91 533.92 189.73 C 523.86 187.07 514.38 182.8 507.23 177.69 C 501.98 173.93 494.72 164.71 495.17 162.38 C 495.42 161.09 497.29 162.42 502.65 167.73 C 518.27 183.16 543.41 189.79 570.29 185.56 C 589.87 182.48 601.19 177.56 611.87 167.48 C 622.74 157.23 625.94 146.41 621.24 135.83 C 616.23 124.55 596.84 113.53 578.43 111.48 L 572.5 110.82 L 568.7 115.84 C 563.66 122.49 552.23 133.2 546.74 136.41 C 528.27 147.24 509 144.21 509 130.48 C 509 115.73 533.22 103.1 561.63 103.02 L 568.76 103 L 574.27 94.75 C 585.8 77.49 589.61 65.75 588.76 50.17 C 588.11 38.19 585.28 31.22 578.11 23.94 C 569.76 15.46 564.06 13.52 548 13.65 C 537.61 13.74 533.98 14.21 526.5 16.41 C 496.55 25.25 474.69 43.12 451.8 77.5 C 442.99 90.73 430.57 115.18 426.52 127.29 C 417 155.75 417.19 182.54 427.12 210.69 C 437.05 238.84 454.11 260.74 473.63 270.38 C 482.06 274.55 486.05 275.66 496.95 276.88 C 503.13 277.57 505.75 278.3 506.7 279.6 C 508.44 281.98 508.35 282.65 506 285 Z M 520.3 284.19 C 516.39 291.69 505.44 304.31 506.57 300 C 506.93 298.62 508.03 296.15 509.02 294.5 C 518.5 278.59 521.96 253.26 517.08 235.52 C 508.95 206 481.8 173 456 161.26 C 443.75 155.69 442.64 155.24 439.35 154.55 C 437.62 154.18 435.39 152.98 434.39 151.87 C 432.73 150.04 432.7 149.62 434.07 147.18 C 435.32 144.94 436.36 144.45 440.39 144.19 C 444.27 143.94 446.72 144.59 452.86 147.51 C 471.26 156.24 492.84 174 505.51 190.83 C 513.66 201.66 521.09 215.94 524.61 227.57 C 526.99 235.42 527.32 238.26 527.4 251 C 527.49 267.29 526.38 272.49 520.3 284.19 Z M 389.61 156.05 C 384.31 158.4 374.99 159.44 371 158.12 C 361.96 155.15 353.47 147.59 349.95 139.39 C 347.39 133.41 347.29 121.94 349.75 117 C 351.25 114 352 113.5 355 113.5 C 357.84 113.5 358.56 113.91 358.81 115.68 C 358.98 116.88 358.42 119.22 357.56 120.88 C 355.62 124.63 355.55 131.98 357.4 136.42 C 359.33 141.04 365.83 148.03 369.72 149.65 C 374.06 151.47 381.46 151.35 385.58 149.4 C 389.86 147.37 395.65 140.99 398.08 135.64 C 400.32 130.7 400.53 123.47 398.53 120 C 397.73 118.62 396.65 116.54 396.11 115.37 C 394.66 112.19 387.01 107.44 381.02 106 C 373.34 104.16 361.77 105.36 353.06 108.91 L 346 111.78 L 346 108.53 C 346 105.52 346.45 105.07 351.92 102.62 C 368.05 95.38 387.48 96.89 398.55 106.26 C 406.85 113.29 410.15 127.32 406.05 138.19 C 403.35 145.33 396.15 153.16 389.61 156.05 Z M 517.75 134.27 C 519.2 135.88 520.52 136.14 525.63 135.81 C 535.11 135.21 545.51 129.62 555.23 119.89 C 559.5 115.62 563 111.64 563 111.06 C 563 110.42 560.35 110.01 556.25 110.01 C 540.72 110.05 521.69 117.9 517.5 126 C 515.54 129.78 515.61 131.91 517.75 134.27 Z M 467.97 239.64 C 458.57 244.85 454.87 245.62 452.4 242.89 C 449.73 239.94 451.28 238.24 461.58 232.75 C 466.49 230.14 476.91 223.65 484.74 218.33 C 492.58 213.01 499.25 208.92 499.58 209.24 C 500.75 210.42 497.92 213.8 486.79 224.54 C 479.03 232.04 473.07 236.81 467.97 239.64 Z M 451.28 218.87 C 444.36 222.35 440.9 222.78 438.93 220.42 C 437.03 218.12 438.69 216.02 445.08 212.63 C 459.08 205.22 471.14 197.42 478.78 190.83 C 482.16 187.92 484 187.27 484 188.97 C 484 190.74 469.97 205.85 463.7 210.83 C 460.29 213.53 454.7 217.15 451.28 218.87 Z M 484.22 259.8 C 476.82 263.75 473.28 263.97 472.42 260.56 C 471.58 257.17 472.25 256.43 479.31 252.93 C 482.71 251.24 490.58 246.27 496.78 241.88 C 508.6 233.54 511 232.16 511 233.74 C 511 237.67 493.14 255.05 484.22 259.8 Z M 440.23 194.81 C 434.08 198.54 431.5 198.81 429.94 195.88 C 428.48 193.16 429.43 192.22 438.5 187.48 C 442.35 185.46 449.43 181.16 454.24 177.91 C 463.51 171.64 464 171.4 464 173.06 C 464 176.45 451.19 188.18 440.23 194.81 Z"/>
    <path d="M 474.20 262.75 C473.30,262.57 472.50,262.18 471.73,261.60 C469.67,260.03 470.03,258.52 473.50,256.23 C471.95,257.49 471.93,258.57 472.42,260.56 C472.71,261.69 473.28,262.42 474.20,262.75 ZM 496.78 241.88 C491.27,245.78 484.44,250.14 480.60,252.25 C484.95,249.77 491.60,245.51 496.78,241.86 C504.01,236.77 507.71,234.28 509.50,233.47 C507.71,234.28 504.01,236.78 496.78,241.88 Z"/>
    <path d="M 467.97 239.64 C473.07,236.81 479.03,232.04 486.79,224.54 C497.92,213.80 500.75,210.42 499.58,209.24 C499.25,208.92 492.58,213.01 484.74,218.33 C476.91,223.65 466.49,230.14 461.58,232.75 C453.13,237.25 450.57,239.21 451.40,241.40 C448.86,238.26 446.66,235.22 445.10,232.57 C442.29,227.82 440.00,223.37 440.00,222.67 C440.00,222.16 439.79,221.50 439.48,220.97 C441.53,222.68 444.97,222.05 451.28,218.87 C454.70,217.15 460.29,213.53 463.70,210.83 C469.97,205.85 484.00,190.74 484.00,188.97 C484.00,187.27 482.16,187.92 478.78,190.83 C471.14,197.42 459.08,205.22 445.08,212.63 C440.08,215.28 437.97,217.14 438.21,218.93 C437.39,217.34 436.19,214.74 435.04,212.00 C425.02,188.24 423.08,159.93 430.88,151.31 C431.78,150.32 433.31,148.26 434.28,146.75 C435.80,144.38 436.71,144.00 440.80,144.00 C441.54,144.00 442.33,144.07 443.17,144.20 C442.28,144.12 441.38,144.13 440.39,144.19 C436.36,144.45 435.32,144.94 434.07,147.18 C432.70,149.62 432.73,150.04 434.39,151.87 C435.39,152.98 437.62,154.18 439.35,154.55 C442.64,155.24 443.75,155.69 456.00,161.26 C481.80,173.00 508.95,206.00 517.08,235.52 C520.19,246.82 519.92,261.20 516.85,274.27 C516.24,273.44 513.55,273.09 506.25,272.75 C494.19,272.18 484.89,269.52 475.17,263.83 C474.37,263.36 473.51,262.81 472.62,262.17 C473.12,262.44 473.64,262.63 474.20,262.75 C476.04,263.42 479.27,262.44 484.22,259.80 C493.14,255.05 511.00,237.67 511.00,233.74 C511.00,233.13 510.64,232.96 509.50,233.47 C507.71,234.28 504.01,236.77 496.78,241.86 C491.60,245.51 484.95,249.77 480.60,252.25 C480.12,252.51 479.69,252.74 479.31,252.93 C476.40,254.37 474.58,255.34 473.50,256.23 C470.41,258.27 469.78,259.69 471.15,261.09 C465.65,256.90 458.88,250.24 453.31,243.69 C455.79,245.39 459.64,244.25 467.97,239.64 ZM 388.24 147.73 C388.75,147.11 387.46,147.09 382.92,147.14 C372.51,147.27 365.34,143.07 361.35,134.51 C358.49,128.37 358.43,125.53 361.00,119.00 C363.60,112.39 363.52,110.39 360.57,108.45 C359.02,107.44 358.27,107.14 356.14,107.79 C364.36,105.13 374.21,104.37 381.02,106.00 C387.01,107.44 394.66,112.19 396.11,115.37 C396.65,116.54 397.73,118.62 398.53,120.00 C400.53,123.47 400.32,130.70 398.08,135.64 C396.12,139.94 392.00,144.90 388.24,147.73 ZM 440.23 194.81 C451.19,188.18 464.00,176.45 464.00,173.06 C464.00,171.40 463.51,171.64 454.24,177.91 C449.43,181.16 442.35,185.46 438.50,187.48 C429.43,192.22 428.48,193.16 429.94,195.88 C431.50,198.81 434.08,198.54 440.23,194.81 ZM 472.87 159.60 C466.16,154.74 459.31,150.57 452.86,147.51 C451.70,146.96 450.66,146.48 449.73,146.09 C456.39,148.68 464.58,153.52 472.87,159.60 ZM 514.79 281.61 C513.38,285.85 511.67,289.83 509.66,293.39 C511.09,290.67 513.20,285.75 514.79,281.61 ZM 356.06 128.47 C356.09,131.63 356.76,134.94 358.05,137.60 C358.35,138.22 358.70,138.84 359.08,139.46 C358.38,138.40 357.79,137.36 357.40,136.42 C356.48,134.22 356.04,131.30 356.06,128.47 ZM 364.04 145.41 C366.24,147.48 368.63,149.16 370.73,150.03 C370.38,149.91 370.04,149.79 369.72,149.65 C368.11,148.98 366.04,147.38 364.04,145.41 ZM 376.53 150.93 C379.17,150.96 381.90,150.62 384.06,149.99 C381.88,150.69 379.17,151.01 376.53,150.93 ZM 354.89 108.21 C354.11,108.50 353.19,108.86 352.07,109.32 L 350.67 109.88 L 353.06 108.91 C353.65,108.67 354.27,108.43 354.89,108.21 Z" fill="rgb(218,106,5)"/>
  </g>
</svg>
